# xmcd
#
# Track frame offsets:
#	150
#	16432
#	33570
#	48277
#	65302
#	76400
#	94115
#	107260
#	121622
#	134607
#	150667
#	162430
#	181797
#	194734
#	208827
#	229275
#	242122
#
# Disc length: 3432 seconds
#
# Revision: 0
# Processed by: cddbd v1.5.1PL0 Copyright (c) Steve Scherf et al.
# Submitted via: audiograbber 1.83.01
#
DISCID=e20d6611
DTITLE=Various Artist - Country Line Dance Time
DYEAR=1900
DGENRE=
TTITLE0=Four Corners - He Thinks He'Ll Keep Her
TTITLE1=Smokey Places - Standing Outside The Fire
TTITLE2=Cowgirls Twist - No Doubt About It
TTITLE3=Sk Shuffle - My Love
TTITLE4=Buffalo Stampede - If The Good Die Young
TTITLE5=California Cha Cha - I'd Like To Have That One Back
TTITLE6=Indian Outlaw - Indian Outlaw
TTITLE7=Cross Kick - Rock My World (Little Country Girl)
TTITLE8=Jungle Jam - If Bubba Can Dance (I Can Too)
TTITLE9=Last Chance - American Honky - Tonk Bar
TTITLE10=Cha Cha Con Tejas - My Baby Loves Me
TTITLE11=Slow Couples Dancing - I Swear
TTITLE12=Texas Two - Live Until I Die
TTITLE13=Electric Boogie - That'S My Story
TTITLE14=Budweiser - John Deere Green
TTITLE15=Slow Couples Dancing - State Of Mind
TTITLE16=Oil Can Slide - Reckless
EXTD=
EXTT0=
EXTT1=
EXTT2=
EXTT3=
EXTT4=
EXTT5=
EXTT6=
EXTT7=
EXTT8=
EXTT9=
EXTT10=
EXTT11=
EXTT12=
EXTT13=
EXTT14=
EXTT15=
EXTT16=
PLAYORDER=
